<?xml version="1.0" encoding="UTF-8" standalone="no"?>
<svg
   xmlns:dc="http://purl.org/dc/elements/1.1/"
   xmlns:cc="http://creativecommons.org/ns#"
   xmlns:rdf="http://www.w3.org/1999/02/22-rdf-syntax-ns#"
   xmlns:svg="http://www.w3.org/2000/svg"
   xmlns="http://www.w3.org/2000/svg"
   viewBox="0 0 343.26666 264.78668"
   height="264.78668"
   width="343.26666"
   xml:space="preserve"
   id="svg2"
   version="1.1"><metadata
     id="metadata8"><rdf:RDF><cc:Work
         rdf:about=""><dc:format>image/svg+xml</dc:format><dc:type
           rdf:resource="http://purl.org/dc/dcmitype/StillImage" /><dc:title></dc:title></cc:Work></rdf:RDF></metadata><defs
     id="defs6" /><g
     transform="matrix(1.3333333,0,0,-1.3333333,0,264.78667)"
     id="g10"><g
       transform="scale(0.1)"
       id="g12"><path
         id="path14"
         style="fill:#231f20;fill-opacity:1;fill-rule:nonzero;stroke:none"
         d="M 332.102,1243.16 C 278.82,1176.2 215.551,1124.18 128.879,1124.18 c -58.3204,0 -110.3399,19.8 -110.3399,89.28 0,17.28 7.4726,56.97 16.1093,96.66 l 63.1797,292.41 H 0 l 8.64063,30.96 H 122.672 c 38.43,0 75.598,4.95 113.937,4.95 L 161.102,1317.5 c -9.993,-44.64 -18.633,-86.76 -18.633,-102.87 0,-32.22 28.531,-39.6 53.281,-39.6 21.059,0 47.07,16.11 64.441,27.27 55.797,35.91 81.809,104.04 96.661,166.05 l 63.179,265.14 H 548.91 l -82.98,-363.06 c -8.731,-37.17 -13.68,-65.7 -12.418,-74.34 1.258,-12.42 13.679,-19.89 24.75,-19.89 44.636,0 99.179,102.87 115.289,138.87 l 27.269,-14.94 c -32.218,-82.98 -100.351,-175.95 -195.84,-175.95 -74.339,0 -94.14,47.07 -92.878,118.98" /><path
         id="path16"
         style="fill:#231f20;fill-opacity:1;fill-rule:nonzero;stroke:none"
         d="m 659.969,1659.14 44.191,326.79 h 41.219 l -18,-126.63 0.902,-0.9 c 17.547,17.55 31.77,23.67 51.75,23.67 44.547,0 74.969,-39.87 74.969,-97.2 0,-56.97 -31.32,-129.06 -138.602,-129.06 -20.339,0 -44.097,1.44 -56.429,3.33 m 62.191,160.83 -18.539,-130.95 h 22.32 c 55.981,0 87.75,39.33 87.75,96.75 0,38.88 -17.55,61.2 -45.992,61.2 -13.32,0 -42.75,-9 -45.539,-27" /><path
         id="path18"
         style="fill:#231f20;fill-opacity:1;fill-rule:nonzero;stroke:none"
         d="M 2.96875,595.879 H 2574.4488 v 25.5625 H 2.96875 Z" /><path
         id="path20"
         style="fill:#231f20;fill-opacity:1;fill-rule:nonzero;stroke:none"
         d="m 7.82813,398.961 14.85157,110.25 h 13.9492 l -6.1172,-42.75 0.3594,-0.359 c 5.8477,5.937 10.707,8.007 17.3672,8.007 15.0312,0 25.293,-13.41 25.293,-32.757 0,-19.262 -10.5313,-43.563 -46.711,-43.563 -6.8398,0 -14.8515,0.543 -18.99217,1.172 M 28.7109,453.141 22.5,409.039 h 7.5586 c 18.8125,0 29.6133,13.231 29.6133,32.582 0,13.141 -5.9414,20.699 -15.5703,20.699 -4.5,0 -14.4024,-3.058 -15.3907,-9.179" /><path
         id="path22"
         style="fill:#ed1346;fill-opacity:1;fill-rule:nonzero;stroke:none"
         d="m 11.7891,242.449 v 69.301 h 29.789 v -64.352 c 0,-14.757 3.961,-27.179 19.1719,-27.179 15.2109,0 19.1719,12.422 19.1719,27.179 v 64.352 h 29.7891 v -69.301 c 0,-30.597 -19.8008,-44.371 -48.961,-44.371 -29.1602,0 -48.9609,13.774 -48.9609,44.371" /><path
         id="path24"
         style="fill:#ed1346;fill-opacity:1;fill-rule:nonzero;stroke:none"
         d="m 215.371,200.059 -39.062,76.32 h -0.27 l 0.902,-76.32 H 149.578 V 311.75 h 37.981 l 37.711,-75.871 h 0.359 l -0.449,75.871 h 27.179 V 200.059 h -36.988" /><path
         id="path26"
         style="fill:#ed1346;fill-opacity:1;fill-rule:nonzero;stroke:none"
         d="m 296.73,200.059 h 29.6992 V 311.75 H 296.73 Z" /><path
         id="path28"
         style="fill:#ed1346;fill-opacity:1;fill-rule:nonzero;stroke:none"
         d="M 394.648,200.059 357.211,311.75 h 31.68 l 24.75,-87.66 H 414 l 24.93,87.66 h 30.601 l -38.07,-111.691 h -36.813" /><path
         id="path30"
         style="fill:#ed1346;fill-opacity:1;fill-rule:nonzero;stroke:none"
         d="M 499.59,200.059 V 311.75 h 78.75 v -21.148 h -48.961 v -23.043 h 46.262 V 246.41 h -46.262 v -25.199 h 50.762 V 200.059 H 499.59" /><path
         id="path32"
         style="fill:#ed1346;fill-opacity:1;fill-rule:nonzero;stroke:none"
         d="m 680.309,200.059 -6.481,20.16 c -6.027,19.172 -9.898,24.031 -20.969,24.031 h -6.211 V 200.059 H 616.949 V 311.75 h 53.102 c 19.801,0 36,-9 36,-28.168 0,-14.852 -7.11,-24.844 -21.512,-28.172 v -0.359 c 9.633,-2.52 10.262,-10.981 15.84,-24.571 l 10.891,-30.421 h -30.961 m -33.661,65.25 h 7.832 c 9.629,0 21.782,0.363 21.782,12.961 0,10.441 -10.352,12.332 -21.782,12.332 h -7.832 v -25.293" /><path
         id="path34"
         style="fill:#ed1346;fill-opacity:1;fill-rule:nonzero;stroke:none"
         d="m 742.41,202.941 2.61,24.661 c 7.652,-4.231 18.359,-7.383 30.691,-7.383 9.449,0 18.359,1.89 18.359,10.89 0,20.789 -52.742,7.653 -52.742,48.332 0,26.821 26.192,34.2 48.602,34.2 10.711,0 21.242,-1.621 28.8,-4.141 l -1.89,-23.039 c -7.738,3.508 -16.379,5.129 -24.84,5.129 -7.469,0 -19.98,-0.629 -19.98,-10.442 0,-18.089 52.742,-5.937 52.742,-46.257 0,-28.891 -24.301,-36.813 -49.051,-36.813 -10.441,0 -23.402,1.621 -33.301,4.863" /><path
         id="path36"
         style="fill:#ed1346;fill-opacity:1;fill-rule:nonzero;stroke:none"
         d="m 862.648,200.059 h 29.793 V 311.75 h -29.793 z" /><path
         id="path38"
         style="fill:#ed1346;fill-opacity:1;fill-rule:nonzero;stroke:none"
         d="m 947.699,200.059 v 89.55 H 920.16 v 22.141 h 84.78 v -22.141 h -27.542 v -89.55 h -29.699" /><path
         id="path40"
         style="fill:#ed1346;fill-opacity:1;fill-rule:nonzero;stroke:none"
         d="m 1107.27,200.059 -8.28,23.851 h -41.94 l -8.82,-23.851 h -30.24 l 42.39,111.691 h 36.45 l 43.11,-111.691 h -32.67 m -43.38,44.91 h 27.99 l -13.23,43.742 h -0.36 l -14.4,-43.742 m 21.96,72.633 v 23.039 h 23.04 v -23.039 h -23.04 m -36.54,0 v 23.039 h 23.13 v -23.039 h -23.13" /><path
         id="path42"
         style="fill:#ed1346;fill-opacity:1;fill-rule:nonzero;stroke:none"
         d="m 1180.89,200.059 v 89.55 h -27.54 v 22.141 h 84.87 v -22.141 h -27.54 v -89.55 h -29.79" /><path
         id="path44"
         style="fill:#ed1346;fill-opacity:1;fill-rule:nonzero;stroke:none"
         d="M 12.6016,0.078125 V 111.77 h 51.3867 c 20.793,0 36.2737,-9.18 36.2737,-28.3481 0,-14.1328 -7.2034,-21.961 -19.7112,-26.1016 V 57.0508 C 95.4883,53.9883 103.141,45.9805 103.141,32.3906 103.141,5.66016 79.6484,0.078125 59.6719,0.078125 H 12.6016 M 42.3906,21.1406 h 8.7305 c 10.8906,0 22.2305,1.6211 22.2305,12.961 0,12.1484 -11.6133,13.3203 -21.8711,13.3203 H 42.3906 V 21.1406 m 0,46.4375 h 8.2813 c 9.7187,0 19.7969,2.4336 19.7969,11.793 0,10.2578 -9.5391,11.25 -19.4375,11.25 h -8.6407 v -23.043" /><path
         id="path46"
         style="fill:#ed1346;fill-opacity:1;fill-rule:nonzero;stroke:none"
         d="M 136.711,0.078125 V 111.77 h 78.75 V 90.6211 H 166.5 v -23.043 h 46.172 V 46.4297 H 166.5 V 21.1406 h 50.672 V 0.078125 h -80.461" /><path
         id="path48"
         style="fill:#ed1346;fill-opacity:1;fill-rule:nonzero;stroke:none"
         d="M 319.5,0.078125 313.109,20.2383 c -6.121,19.1719 -9.988,23.9414 -20.968,23.9414 H 285.84 V 0.078125 H 256.141 V 111.77 h 53.097 c 19.801,0 36,-9 36,-28.1684 0,-14.9414 -7.019,-24.8399 -21.418,-28.1719 v -0.3594 c 9.539,-2.5195 10.168,-10.9805 15.84,-24.6601 L 350.551,0.078125 H 319.5 M 285.84,65.332 h 7.832 c 9.629,0 21.777,0.2696 21.777,12.9571 0,10.4414 -10.347,12.332 -21.777,12.332 H 285.84 V 65.332" /><path
         id="path50"
         style="fill:#ed1346;fill-opacity:1;fill-rule:nonzero;stroke:none"
         d="M 449.371,0.078125 410.309,76.3984 h -0.27 L 411.031,0.078125 H 383.672 V 111.77 h 37.887 L 459.27,35.8984 h 0.359 L 459.18,111.77 h 27.179 V 0.078125 h -36.988" /></g></g></svg>